<?xml version="1.0" encoding="utf-8"?>
<!-- Generator: Adobe Illustrator 16.0.2, SVG Export Plug-In . SVG Version: 6.00 Build 0)  -->
<!DOCTYPE svg PUBLIC "-//W3C//DTD SVG 1.1//EN" "http://www.w3.org/Graphics/SVG/1.1/DTD/svg11.dtd">
<svg version="1.1" xmlns="http://www.w3.org/2000/svg" xmlns:xlink="http://www.w3.org/1999/xlink" x="0px" y="0px" width="512px"
	 height="512px" viewBox="0 0 512 512" enable-background="new 0 0 512 512" xml:space="preserve">
<g id="Layer_1">
</g>
<g id="Layer_2">
</g>
<g id="Layer_3">
	<g display="none">
		<path display="inline" fill-rule="evenodd" clip-rule="evenodd" fill="#0F172A" d="M511.813,475.967
			c0,19.625-13.419,36.158-30.82,36.158H32.008c-17.401,0-32.195-16.533-32.195-36.158V35.033c0-19.624,14.794-34.908,32.195-34.908
			h448.984c17.401,0,30.82,15.284,30.82,34.908V475.967z"/>
	</g>
	<g>
		<radialGradient id="SVGID_1_" cx="262.8623" cy="333.4102" r="175.6998" gradientUnits="userSpaceOnUse">
			<stop  offset="0.5744" style="stop-color:#130C0E"/>
			<stop  offset="0.7977" style="stop-color:#130C0E"/>
			<stop  offset="1" style="stop-color:#130C0E"/>
		</radialGradient>
		<path fill="url(#SVGID_1_)" d="M414.926,406.313l0.483-0.123c-5.543-7.434-16.854-25.145-19.87-39.281
			c-1.755-8.289-11.295-26.049-23.189-43.09c-8.258-11.862-24.206-32.764-38.941-40.74c0.021-1.85-0.29-3.788-1.053-5.822
			c-3.186-8.154-10.531-8.978-16.986-9.756c-0.535-0.071-1.072-0.139-1.605-0.21c-8.412-9.048-21.244-24.229-22.953-29.877
			c-1.26-4.219-2.837-13.335-4.394-22.1c-1.708-9.787-3.292-19.059-4.836-24.096c-3.774-12.344-11.729-19.503-22.558-20.347
			c-1.133-1.497-2.449-2.782-3.941-3.848c-2.096-1.469-4.641-2.021-7.342-1.544c-7.07,1.277-15.799,9.729-27.432,26.601
			c-4.684,6.841-37.436,50.53-50.114,66.896c-9.446-10.119-30.485-33.602-34.473-42.292c-3.155-6.882-9.622-14.61-16.886-20.219
			c-11.461-8.858-20.778-9.771-26.573-8.932c-7.014,1.005-10.011,4.599-11.274,7.44c-3.105,6.961,0.258,17.248,10.451,32.323
			c9.086,13.366,31.027,48.145,45.505,71.143c13.215,20.981,28.088,40.112,31.735,44.725c0.328,4.182,0.627,8.427,0.885,12.428
			c0.6,9.099,1.086,16.241,2.066,20.096c2.23,8.637,13.379,18.063,17.59,21.355c1.193,6.084,4.742,11.753,10.161,16.16
			c4.769,3.867,10.713,6.563,17.009,7.751c0.351,1.311,0.734,2.558,1.175,3.685c2.796,7.468,7.182,11.111,13.397,14.578
			c6.906,3.842,25.188,8.337,44.53,13.078c15.923,3.885,32.35,7.9,40.564,11.234c12.774,5.131,15.842,13.525,20.018,25.115
			c1.046,3.014,2.217,6.084,3.581,9.292c0.537,1.277,1.615,2.159,2.85,2.511c0.525,0.354,1.13,0.608,1.795,0.709
			c4.035,0.594,12.348,0.93,22.922-3.279l0.018-0.039c9.445-3.777,64.587-28.482,75.866-38.714l0.336-0.118
			c2.174-1.11,3.013-3.7,1.946-5.888C437.449,437.463,420.285,413.502,414.926,406.313z M247.369,262.827
			c-6.296,1.315-12.727,2.681-18.655,4.02c2.951-7.262,7.095-16.981,10.952-25.021v-0.005
			C241.824,249.511,245.164,257.661,247.369,262.827z"/>
		<g>
			<path fill="#9ACD32" d="M159.502,292.184l-0.006,0.002c0.187,10.17,2.139,21.268,5.034,28.283
				c0.603,1.436,1.132,3.258,1.573,5.418c-6.246-8.373-14.505-20.009-22.24-32.233c-14.637-23.204-36.719-58.221-45.945-71.781
				c-11.457-16.849-10.37-22.623-9.762-23.969c0.512-1.206,2.037-1.991,4.492-2.33c13.129-1.884,29.42,13.342,34.436,24.25
				c5.48,11.93,33.377,41.792,37.456,46.134C160.215,273.938,159.406,284.35,159.502,292.184z"/>
			<path fill="#9ACD32" d="M263.268,201.966c1.455-6.621,1.738-13.51,0.775-19.396c-0.15-0.875-0.328-1.687-0.508-2.496
				c1.406,0.643,2.674,1.488,3.887,2.611c2.533,2.413,4.512,5.891,5.856,10.357c1.38,4.563,3.017,14.02,4.587,23.146
				c1.651,9.506,3.179,18.486,4.631,23.281c1.62,5.402,8.666,14.579,15.041,22.137c-6.447-3.161-13.641-6.116-30.387-3.083
				l0.071,0.024c-3.39,0.611-7.158,1.303-11.096,2.106c-3.634-8.252-9.69-23.479-10.002-31.34c0.318-0.418,0.591-0.824,0.876-1.181
				c1.514-1.861,3-3.508,4.393-5.124C256.586,217.091,261.041,211.997,263.268,201.966z"/>
			<path fill="#9ACD32" d="M364.539,490.586c-5.873,2.353-12.055,3.354-17.189,2.902c-0.951-2.37-1.77-4.701-2.594-6.958
				c-3.449-9.499-6.758-18.583-15.813-25.263c4.405-0.499,8.359-1.409,11.843-2.617c13.951-4.844,20.982-14.223,24.941-19.558
				c0.468-0.574,0.848-1.116,1.24-1.614c1.497-1.906,1.154-4.67-0.752-6.166c-1.909-1.501-4.67-1.156-6.169,0.752
				c-0.425,0.561-0.847,1.115-1.345,1.75c-3.209,4.252-8.015,10.701-16.842,14.896c-10.906,5.174-25.281,5.535-42.725,1.201
				c-6.736-1.773-14.166-3.619-21.453-5.357c-17.198-4.215-36.688-8.969-42.567-12.275c-9.7-5.425-10.925-8.652-14.222-38.161
				c-2.658-23.657,3.996-54.708,7.15-69.638c0.623-2.941,1.102-5.266,1.359-6.744c0.012-0.107,0.507-2.539,9.385-6.446
				c6.295-2.751,14.516-5.296,21.766-7.505c2.652-0.815,5.113-1.569,7.426-2.316c15.502-4.971,22.041-5.232,32.728,2.729
				c4.092,3.053,7.435,5.132,10.134,6.82c5.834,3.632,7.076,4.54,7.677,8.188c0.062,0.184,0.063,0.492-0.618,1.036
				c-3.303,2.638-13.398,3.619-20.114,1.017c-0.354-0.135-8.77-3.336-17.149,2.145c-6.463,4.199-15.717,9.828-15.796,9.906
				c-1.358,0.83-2.165,2.344-2.134,3.929c0.049,0.136,0.262,8.447-0.299,17.948l0.044,0.139c-0.505,7.427-1.482,15.58-3.441,21.199
				c-0.8,2.283,0.382,4.803,2.667,5.606c2.281,0.8,4.802-0.386,5.607-2.667c1.143-3.225,2.002-7.121,2.611-11.143
				c2.055,3.561,4.023,7.295,5.678,10.887c3.898,8.42,5.022,13.581,4.83,15.397c-0.246,2.399,1.484,4.575,3.9,4.866
				c0.646,0.088,1.338,0,1.932-0.205c1.559-0.541,2.773-1.938,2.939-3.691c0.563-5.34-2.753-13.854-5.58-20.074
				c-3.455-7.436-7.883-15.157-12.336-21.324c0.322-6.182,0.332-11.635,0.265-14.644c3.187-1.929,9.239-5.676,13.841-8.713
				c4.451-2.884,8.817-1.417,9.106-1.313c4.169,1.638,9.612,2.37,14.944,2.013c3.379-0.196,9.666-1.041,13.848-4.393
				c3.01-2.434,4.387-5.741,3.818-9.297c-1.217-7.807-5.602-10.498-11.697-14.297c-2.557-1.582-5.762-3.553-9.529-6.414
				c-13.74-10.247-23.624-9.542-40.702-4.076c-2.265,0.734-4.729,1.488-7.331,2.284c-7.482,2.291-15.996,4.887-22.719,7.886
				c-9.199,4.016-13.711,8.053-14.556,13.023c-0.212,1.309-0.71,3.589-1.317,6.423c-3.297,15.387-10.08,47.41-7.299,72.466
				c0.746,6.732,1.396,12.322,2.1,17.012c-9.207-2.818-16.113-9.682-17.008-17.448c-0.398-3.661-0.67-12.001-0.678-22.388
				c-0.016-2.411-1.99-4.398-4.401-4.387c-2.412,0.017-4.399,1.99-4.387,4.404c-0.017,4.839,0.054,9.184,0.157,12.902
				c-3.888-3.793-7.475-8.051-8.281-11.264c-0.803-3.063-1.314-10.598-1.824-18.6c-0.945-14.119-2.016-30.101-5.358-38.096
				c-2.028-4.953-4.202-14.635-4.382-25.064c-0.195-10.937,1.831-19.611,5.646-24.481c9.813-12.454,48.299-63.657,53.445-71.205
				c13.566-19.725,19.785-22.705,21.824-23.053c0.538-0.082,0.674,0.025,0.738,0.053c3.411,2.418,4.787,7.131,5.385,10.627
				c0.75,4.828,0.531,10.563-0.678,16.127c-1.716,7.793-5.002,11.507-9.895,17.111c-1.363,1.553-2.955,3.339-4.573,5.342
				c-0.652,0.793-1.3,1.736-2.007,2.807c-0.105,0.141-0.169,0.261-0.273,0.402c-7.204,11.396-17.382,36.89-19.871,43.2
				c-5.572,1.422-9.981,2.643-12.366,3.625c-5.016,1.998-7.959,5.229-9.901,10.738c-1.74,4.924-2.848,12.098-4.527,22.964
				c-1.311,8.375-2.051,20.612-2.434,29.437c-0.124,2.461,1.759,4.479,4.22,4.605c2.413,0.139,4.479-1.76,4.604-4.223
				c0.572-12.281,1.354-22.17,2.353-28.48c3.33-21.672,4.15-24.943,8.982-26.874c6.956-2.771,38.442-9.69,59.827-13.565
				c14.852-2.687,19.815-0.246,26.092,2.875c2.225,1.08,4.716,2.321,7.708,3.393c4.381,1.516,8.461,2,12.092,2.386
				c6.476,0.734,8.666,1.262,9.854,4.243c2.158,5.473-4.057,9.944-4.393,10.16c-1.996,1.361-2.484,4.102-1.122,6.098
				c1.143,1.657,3.269,2.312,5.058,1.689c0.371-0.126,0.72-0.299,1.057-0.518c1.781-1.236,4.107-3.432,5.867-6.203
				c9.504,5.75,22.034,19.193,34.676,37.381c12.526,18.021,20.633,34.131,21.91,40.166c3.342,15.707,15.125,34.396,21.543,42.969
				c4.926,6.585,19.922,27.518,28.145,42.582C425.256,464.064,372.568,487.396,364.539,490.586z"/>
		</g>
		<path fill="#180E0A" d="M337.56,371.797c-9.695-4.358-20.669-6.07-32.53-5.024c-2.424,0.229-4.201,2.331-3.973,4.755
			c0.226,2.426,2.328,4.204,4.754,3.977c10.375-0.891,19.869,0.52,28.177,4.28c6.241,2.796,11.621,6.96,14.776,11.339
			c1.164,1.589,3.221,2.207,5,1.589c0.412-0.144,0.762-0.314,1.127-0.595c1.969-1.398,2.391-4.154,0.992-6.123
			c-2.381-3.316-7.91-9.528-18.283-14.212L337.56,371.797z"/>
	</g>
	<g>
		<g>
			<path fill="#9ACD32" d="M218.697,95.351c-0.212,4.359-3.438,7.742-7.203,7.56c-3.768-0.183-6.647-3.862-6.436-8.224
				c0.212-4.365,3.437-7.749,7.203-7.566C216.029,87.304,218.91,90.985,218.697,95.351z"/>
		</g>
		<g>
			<path fill="#9ACD32" d="M380.412,63.913c-0.25,5.144-4.059,9.133-8.506,8.916c-4.445-0.217-7.843-4.556-7.593-9.699
				s4.054-9.143,8.499-8.927C377.26,54.42,380.662,58.769,380.412,63.913z"/>
		</g>
		<g>
			<path fill="#9ACD32" d="M341.887,192.428c-0.283,5.802-4.58,10.31-9.594,10.066c-5.021-0.245-8.859-5.149-8.578-10.95
				c0.283-5.809,4.581-10.318,9.602-10.073C338.33,181.714,342.169,186.619,341.887,192.428z"/>
		</g>
		<g>
			<polygon fill="#9ACD32" points="301.272,40.105 332.658,48.681 304.49,63.966 305.086,95.245 282.436,73.973 253.055,84.461 
				266.465,55.746 247.541,31.159 278.854,35.318 296.477,8.317 			"/>
		</g>
		<g>
			<path fill="#9ACD32" d="M157.715,165.581c-0.227,4.654-3.68,8.269-7.703,8.072c-4.024-0.195-7.106-4.127-6.881-8.781
				c0.228-4.667,3.676-8.279,7.701-8.084C154.856,156.983,157.942,160.915,157.715,165.581z"/>
		</g>
		<g>
			<path fill="#9ACD32" d="M88.535,165.208c-2.123-11.016-7.549-19.668-16.286-25.961c-8.727-6.279-17.874-8.113-27.441-5.503
				l-0.26-1.347c9.56-2.611,17.12-9.01,22.689-19.203c5.556-10.192,7.271-20.784,5.146-31.809l1.179-0.318
				c2.11,10.98,7.544,19.626,16.283,25.928c8.734,6.314,17.872,8.146,27.439,5.535l0.258,1.348
				c-9.558,2.613-17.12,9.01-22.678,19.203c-5.565,10.181-7.278,20.783-5.158,31.81L88.535,165.208L88.535,165.208z"/>
		</g>
		<g>
			<path fill="#9ACD32" d="M138.84,54.288c-3.471-11.203-10.176-19.604-20.109-25.211l0.648-1.152
				c9.936,5.609,20.59,7.006,31.979,4.192c11.386-2.815,19.721-8.909,25.013-18.283l1.219,0.688
				c-5.275,9.346-6.188,19.629-2.724,30.848c3.458,11.213,10.169,19.621,20.104,25.229l-0.648,1.15
				c-9.936-5.607-20.603-7.014-31.979-4.191c-11.386,2.807-19.723,8.908-25.01,18.275l-1.221-0.689
				C141.4,75.776,142.319,65.487,138.84,54.288z"/>
		</g>
		<g>
			<path fill="#9ACD32" d="M389.373,134.382c-3.873-15.197-12.105-26.567-24.699-34.08l0.912-1.566
				c12.59,7.512,26.367,9.285,41.311,5.322c14.957-3.963,26.137-12.359,33.557-25.18l1.539,0.921
				c-7.381,12.777-9.15,26.795-5.295,42.024c3.863,15.217,12.086,26.576,24.689,34.102l-0.908,1.568
				c-12.604-7.516-26.373-9.289-41.324-5.326c-14.957,3.965-26.137,12.361-33.545,25.182l-1.549-0.921
				C391.477,163.608,393.244,149.589,389.373,134.382z"/>
		</g>
		<g>
			<path fill="#9ACD32" d="M291.236,173.132c1.485,0.454,3.152,0.355,4.686-0.392l61.408-30.116
				c2.979-1.461,4.168-5.025,2.622-7.871c-1.541-2.847-5.282-3.995-8.261-2.533l-61.407,30.113
				c-2.979,1.461-4.167,5.024-2.624,7.871c0.793,1.465,2.096,2.473,3.581,2.93L291.236,173.132z"/>
		</g>
		<g>
			<path fill="#9ACD32" d="M265.308,151.604c1.011-0.664,1.772-1.661,2.076-2.854l12.05-47.796c0.582-2.318-0.993-4.483-3.486-4.782
				c-2.49-0.298-5.035,1.373-5.617,3.691l-12.052,47.795c-0.583,2.317,0.993,4.483,3.484,4.781c1.28,0.154,2.536-0.174,3.548-0.838
				L265.308,151.604z"/>
		</g>
		<g>
			<path fill="#9ACD32" d="M157.53,122.962c0.349,1.581,1.223,3.063,2.546,4.109l53.057,41.872c2.572,2.031,5.956,1.413,7.467-1.365
				c1.513-2.777,0.636-6.757-1.938-8.786l-53.057-41.873c-2.573-2.031-5.955-1.414-7.471,1.365
				c-0.777,1.428-0.952,3.102-0.604,4.684L157.53,122.962z"/>
		</g>
	</g>
</g>
</svg>
